<svg width="20" height="20" viewBox="0 0 20 20" fill="none" xmlns="http://www.w3.org/2000/svg">
<path d="M17.8338 17.0481L12.9555 12.1898C13.9888 10.9734 14.5115 9.4069 14.4148 7.81626C14.3181 6.22562 13.6095 4.73339 12.4365 3.65015C11.2634 2.56692 9.71632 1.97613 8.11712 2.00074C6.51793 2.02535 4.98986 2.66347 3.85095 3.78229C2.71205 4.90111 2.05004 6.41443 2.00272 8.00729C1.9554 9.60015 2.52642 11.1498 3.59691 12.3338C4.66741 13.5178 6.15493 14.2448 7.74986 14.3636C9.3448 14.4825 10.9243 13.9839 12.1596 12.9717L17.0446 17.8367C17.1496 17.9413 17.2919 18 17.4404 18C17.5888 18 17.7311 17.9413 17.8361 17.8367C17.941 17.7321 18 17.5903 18 17.4424C18 17.2945 17.941 17.1527 17.8361 17.0481H17.8338ZM3.10489 8.18459C3.10444 7.17823 3.40355 6.19434 3.96438 5.35736C4.52521 4.52039 5.32257 3.86793 6.2556 3.4825C7.18863 3.09708 8.21543 2.99601 9.20612 3.19207C10.1968 3.38813 11.1069 3.87252 11.8213 4.58397C12.5356 5.29542 13.0222 6.20197 13.2194 7.18897C13.4166 8.17596 13.3156 9.19906 12.9292 10.1289C12.5428 11.0587 11.8883 11.8534 11.0485 12.4125C10.2087 12.9717 9.22133 13.2701 8.21128 13.2701C6.85773 13.269 5.55993 12.7329 4.60261 11.7795C3.6453 10.826 3.10666 9.53321 3.10489 8.18459Z" fill="black"/>
</svg>
